<?xml version="1.0" standalone="no"?>
<!DOCTYPE svg PUBLIC "-//W3C//DTD SVG 20010904//EN"
 "http://www.w3.org/TR/2001/REC-SVG-20010904/DTD/svg10.dtd">
<svg version="1.0" xmlns="http://www.w3.org/2000/svg"
 width="176.000000pt" height="176.000000pt" viewBox="0 0 176.000000 176.000000"
 preserveAspectRatio="xMidYMid meet">

<g transform="translate(0.000000,176.000000) scale(0.100000,-0.100000)"
fill="#000000" stroke="none">
<path d="M0 880 l0 -880 880 0 880 0 0 880 0 880 -880 0 -880 0 0 -880z m1120
633 c3 -3 -3 -10 -12 -17 -17 -12 -17 -16 -2 -60 19 -54 34 -68 34 -31 0 28
16 66 34 77 35 24 76 -16 76 -72 0 -42 -26 -80 -55 -80 -8 0 -24 9 -35 20 -24
24 -34 26 -27 5 9 -23 -11 -28 -23 -5 -14 26 -46 26 -60 -1 -7 -11 -15 -18
-18 -14 -10 9 -11 66 -2 60 9 -5 42 83 38 100 -1 6 -8 9 -15 7 -14 -3 -17 10
-6 22 7 7 63 -2 73 -11z m340 7 c0 -5 -8 -14 -17 -19 -15 -9 -14 -10 10 -11
17 0 27 -5 27 -15 0 -10 -11 -15 -35 -15 -28 0 -35 -4 -35 -20 0 -16 7 -20 35
-20 19 0 35 -4 35 -10 0 -5 -16 -10 -35 -10 -28 0 -35 -4 -35 -20 0 -16 7 -20
35 -20 25 0 35 -4 35 -16 0 -12 -10 -14 -47 -12 l-48 3 -3 69 c-3 66 -2 70 28
98 32 29 50 35 50 18z m-1040 -44 c0 -8 -5 -16 -11 -18 -16 -5 -17 -90 -1 -96
6 -2 12 -10 12 -18 0 -10 -12 -14 -40 -14 -40 0 -54 15 -25 26 21 9 21 100 -1
108 -25 10 -6 26 32 26 23 0 34 -5 34 -14z m101 4 c27 -15 23 -28 -8 -26 -38
2 -37 -17 1 -29 25 -8 32 -16 34 -42 3 -27 -1 -35 -22 -44 -29 -14 -71 -5 -79
15 -5 12 3 14 36 13 52 -2 58 21 9 37 -47 16 -58 40 -32 66 23 23 33 24 61 10z
m149 -5 c0 -8 -9 -15 -20 -15 -16 0 -19 -8 -22 -62 -2 -35 -7 -63 -13 -63 -5
0 -11 28 -13 63 -3 54 -6 62 -22 62 -11 0 -20 7 -20 15 0 12 13 15 55 15 42 0
55 -3 55 -15z m96 -6 c38 -42 13 -139 -36 -139 -49 0 -73 98 -35 140 23 26 47
25 71 -1z m184 -4 c16 -30 28 -32 32 -5 2 12 8 21 13 20 11 0 20 -150 9 -150
-4 0 -20 14 -36 32 l-28 32 0 -32 c0 -18 -4 -32 -10 -32 -6 0 -10 33 -10 80 0
83 7 97 30 55z m53 -264 c10 -4 19 -11 20 -16 1 -6 5 -9 10 -7 4 1 7 -3 7 -8
0 -6 9 -23 20 -38 10 -15 20 -40 22 -57 3 -25 -1 -31 -22 -34 -23 -3 -23 -4
-5 -11 19 -7 19 -7 -3 -19 -20 -11 -22 -9 -28 31 -5 28 -17 52 -38 72 -17 16
-22 23 -11 16 20 -15 20 -14 1 8 -13 15 -26 20 -40 16 -17 -4 -18 -3 -6 5 10
7 11 11 3 11 -21 0 -15 20 10 30 27 11 36 11 60 1z m-244 -113 c-5 -18 -9 -52
-9 -75 0 -60 -20 -66 -21 -6 -2 63 1 76 14 85 7 4 8 8 2 8 -8 0 13 19 22 20 1
0 -3 -15 -8 -32z m209 5 c14 -22 13 -23 -12 -23 -15 0 -25 4 -21 9 3 5 1 12
-5 16 -5 3 -10 11 -10 16 0 18 32 5 48 -18z m-152 -18 c-3 -9 -11 -13 -16 -10
-8 5 -7 11 1 21 14 18 24 11 15 -11z m194 -34 c0 -45 -6 -37 -13 18 -4 29 -2
40 4 30 5 -7 9 -29 9 -48z m-237 -5 c-4 -18 0 -25 14 -28 16 -3 15 -5 -4 -10
-21 -6 -23 -3 -23 34 0 21 4 37 9 34 4 -3 6 -16 4 -30z m34 -12 c-3 -3 -12 -4
-19 -1 -8 3 -5 6 6 6 11 1 17 -2 13 -5z m-60 -155 c8 -65 17 -92 38 -117 13
-16 22 -32 19 -35 -5 -5 36 -20 81 -30 18 -4 17 -5 -3 -6 -34 -2 -84 23 -117
58 -23 25 -30 42 -30 72 0 21 -4 38 -10 36 -15 -3 -8 -76 10 -104 22 -33 13
-40 -14 -12 -19 21 -41 76 -41 105 0 16 41 55 53 51 7 -2 13 -10 14 -18z m84
3 c-13 -2 -27 0 -32 5 -6 6 3 7 23 4 28 -4 29 -6 9 -9z m136 2 c-3 -3 -12 -4
-19 -1 -8 3 -5 6 6 6 11 1 17 -2 13 -5z m-137 -61 c24 -50 22 -62 -7 -59 -17
2 -27 10 -29 22 -1 10 -6 29 -9 42 -11 34 28 30 45 -5z m-46 -19 c3 -8 2 -12
-4 -9 -6 3 -10 10 -10 16 0 14 7 11 14 -7z m187 -84 c-13 -11 -28 -20 -35 -20
-6 0 3 9 19 19 39 25 46 25 16 1z m-81 -80 c0 -17 -7 -20 -44 -20 -35 0 -48
-5 -60 -22 -9 -12 -16 -18 -16 -14 0 24 35 46 72 46 27 0 38 4 38 15 0 8 2 15
5 15 3 0 5 -9 5 -20z m88 -22 c7 -7 12 -8 12 -2 0 18 44 10 68 -12 22 -21 22
-21 3 -46 -13 -16 -28 -24 -43 -22 -13 1 -30 3 -38 4 -8 1 -4 5 9 9 48 13 31
26 -31 25 -47 -1 -51 0 -15 3 26 2 47 9 47 14 0 6 6 7 13 3 7 -4 9 -3 4 2 -5
5 -12 9 -15 10 -4 0 -14 3 -22 7 -8 3 -24 8 -35 10 -16 4 -15 5 6 6 14 0 30
-4 37 -11z m-377 -174 c10 -9 15 -23 12 -32 -4 -15 -3 -15 6 -2 6 8 11 23 11
33 0 16 21 17 368 15 318 -3 367 -5 367 -18 0 -8 -10 -16 -22 -18 -22 -3 -23
-7 -23 -113 0 -90 -3 -109 -15 -109 -12 0 -15 19 -15 110 0 107 -1 110 -22
111 -22 1 -22 1 2 9 17 5 19 8 7 9 -9 1 -26 -4 -36 -11 -15 -9 -17 -16 -10
-30 14 -27 7 -73 -11 -73 -10 0 -16 12 -18 33 -3 34 -25 44 -36 16 -11 -29 -6
-40 28 -56 24 -12 34 -23 34 -40 0 -21 -6 -25 -41 -27 -23 -1 -44 -4 -47 -7
-3 -3 13 -5 35 -4 61 3 65 2 65 -20 0 -20 -7 -20 -305 -20 -298 0 -305 0 -305
20 0 12 7 20 17 20 13 0 14 3 5 12 -16 16 -16 140 0 156 9 9 8 12 -5 12 -14 0
-17 -10 -17 -54 0 -47 -4 -57 -26 -75 -15 -12 -35 -21 -45 -21 -13 0 -19 -9
-21 -32 -4 -44 -33 -46 -33 -3 0 17 -4 36 -8 43 -5 6 -5 17 -1 24 4 6 8 43 9
82 1 39 3 72 4 74 5 9 78 -1 92 -14z"/>
<path d="M1174 1446 c-11 -28 1 -81 18 -84 26 -5 42 36 29 71 -11 29 -38 36
-47 13z"/>
<path d="M712 1448 c-26 -26 -8 -88 25 -88 16 0 27 43 19 75 -7 27 -25 32 -44
13z"/>
<path d="M741 798 c-1 -10 11 -30 27 -46 15 -15 19 -19 10 -7 -9 11 -21 31
-27 45 -7 17 -10 20 -10 8z"/>
<path d="M1330 430 l-25 -8 28 -1 c15 -1 27 4 27 9 0 6 -1 10 -2 9 -2 -1 -14
-5 -28 -9z"/>
<path d="M521 398 c2 -30 2 -30 6 -6 3 20 11 28 31 31 24 4 24 4 -5 6 -31 1
-33 -1 -32 -31z"/>
<path d="M663 423 c15 -2 39 -2 55 0 15 2 2 4 -28 4 -30 0 -43 -2 -27 -4z"/>
<path d="M778 423 c17 -2 47 -2 65 0 17 2 3 4 -33 4 -36 0 -50 -2 -32 -4z"/>
<path d="M908 423 c18 -2 45 -2 60 0 15 2 0 4 -33 4 -33 0 -45 -2 -27 -4z"/>
<path d="M1028 423 c17 -2 47 -2 65 0 17 2 3 4 -33 4 -36 0 -50 -2 -32 -4z"/>
<path d="M1153 423 c15 -2 39 -2 55 0 15 2 2 4 -28 4 -30 0 -43 -2 -27 -4z"/>
<path d="M540 355 c0 -46 3 -55 18 -55 26 0 42 20 42 51 0 43 -10 59 -36 59
-22 0 -24 -4 -24 -55z"/>
<path d="M733 372 c-1 -28 1 -32 7 -17 6 15 9 6 9 -30 1 -47 -8 -77 -23 -76
-3 0 -11 -1 -18 -3 -40 -13 -42 -14 -22 -15 11 -1 25 4 32 11 9 9 12 9 12 0 0
-7 7 -12 15 -12 12 0 15 17 15 90 0 65 -3 90 -12 90 -8 0 -14 -15 -15 -38z"/>
<path d="M858 334 c3 -51 0 -80 -9 -88 -9 -8 -10 -8 -4 4 7 12 6 13 -6 3 -8
-6 -27 -13 -44 -15 -16 -3 1 -5 39 -6 51 0 66 2 57 11 -15 15 -14 140 1 155 9
9 7 12 -12 12 -25 0 -25 -1 -22 -76z"/>
<path d="M983 381 c12 -33 4 -61 -18 -61 -10 0 -15 10 -15 31 0 26 -3 31 -20
26 -23 -6 -28 9 -5 16 11 4 10 4 -2 3 -16 -1 -18 -10 -14 -61 1 -33 5 -63 8
-67 8 -14 33 -8 33 7 0 17 25 20 35 5 3 -5 1 -19 -5 -30 -9 -17 -8 -20 9 -20
13 0 20 9 23 29 2 17 1 28 -4 25 -10 -6 2 85 14 109 7 14 4 17 -21 17 -28 0
-29 -1 -18 -29z"/>
<path d="M1103 395 c0 -8 4 -12 9 -9 4 3 8 -32 8 -78 0 -50 4 -78 9 -70 5 8
24 17 42 22 30 6 31 8 14 15 -39 15 -55 37 -55 75 0 20 5 41 12 48 9 9 6 12
-13 12 -16 0 -26 -6 -26 -15z"/>
<path d="M669 396 c-2 -2 -2 -34 -1 -70 3 -57 6 -66 23 -66 17 0 19 8 19 60 0
55 -2 60 -22 61 -22 0 -22 1 -3 9 15 6 16 9 4 9 -9 1 -18 -1 -20 -3z"/>
<path d="M788 393 c6 -2 18 -2 25 0 6 3 1 5 -13 5 -14 0 -19 -2 -12 -5z"/>
<path d="M1040 385 c-6 -8 -10 -20 -7 -27 3 -8 6 -6 6 5 1 10 11 22 24 27 15
6 17 9 6 9 -9 1 -22 -6 -29 -14z"/>
<path d="M1155 389 c-11 -17 -2 -18 19 -3 17 12 17 14 4 14 -9 0 -20 -5 -23
-11z"/>
<path d="M790 320 c0 -53 2 -60 20 -60 18 0 20 7 20 60 0 53 -2 60 -20 60 -18
0 -20 -7 -20 -60z"/>
<path d="M972 355 c0 -16 2 -22 5 -12 2 9 2 23 0 30 -3 6 -5 -1 -5 -18z"/>
<path d="M1050 346 c0 -30 4 -36 21 -36 17 0 20 5 17 32 -2 22 -9 34 -20 36
-15 3 -18 -4 -18 -32z"/>
<path d="M1222 350 c0 -19 2 -27 5 -17 2 9 2 25 0 35 -3 9 -5 1 -5 -18z"/>
<path d="M1028 260 c-3 -16 -1 -30 4 -30 4 0 8 14 8 30 0 17 -2 30 -4 30 -2 0
-6 -13 -8 -30z"/>
<path d="M963 260 c-7 -10 -23 -20 -35 -23 -21 -4 -21 -4 -2 -6 20 -1 62 34
53 44 -3 2 -10 -4 -16 -15z"/>
<path d="M1050 254 c0 -17 6 -24 20 -24 13 0 20 7 20 19 0 10 -9 21 -20 24
-16 4 -20 0 -20 -19z"/>
<path d="M522 225 c0 -16 2 -22 5 -12 2 9 2 23 0 30 -3 6 -5 -1 -5 -18z"/>
<path d="M663 203 c15 -2 39 -2 55 0 15 2 2 4 -28 4 -30 0 -43 -2 -27 -4z"/>
<path d="M778 203 c17 -2 47 -2 65 0 17 2 3 4 -33 4 -36 0 -50 -2 -32 -4z"/>
<path d="M908 203 c18 -2 45 -2 60 0 15 2 0 4 -33 4 -33 0 -45 -2 -27 -4z"/>
<path d="M1028 203 c17 -2 47 -2 65 0 17 2 3 4 -33 4 -36 0 -50 -2 -32 -4z"/>
<path d="M1153 203 c15 -2 39 -2 55 0 15 2 2 4 -28 4 -30 0 -43 -2 -27 -4z"/>
</g>
</svg>
