<?xml version="1.0" standalone="no"?>
<!DOCTYPE svg PUBLIC "-//W3C//DTD SVG 20010904//EN"
 "http://www.w3.org/TR/2001/REC-SVG-20010904/DTD/svg10.dtd">
<svg version="1.0" xmlns="http://www.w3.org/2000/svg"
 width="1180.000000pt" height="933.000000pt" viewBox="0 0 680.000000 933.000000"
 preserveAspectRatio="xMidYMid meet">

<g transform="translate(0.000000,933.000000) scale(0.100000,-0.100000)"
fill="#9FC5E8" stroke="none">
<path d="M5975 9250 c-71 -4 -170 -15 -220 -23 -49 -9 -143 -23 -209 -32 -65
-9 -129 -20 -143 -26 -13 -5 -37 -9 -53 -9 -16 0 -64 -9 -107 -19 -134 -34
-236 -61 -303 -80 -36 -11 -94 -27 -130 -37 -36 -10 -94 -32 -130 -49 -36 -17
-81 -38 -100 -45 -61 -24 -151 -82 -207 -134 -69 -62 -121 -173 -171 -361 -39
-147 -52 -199 -67 -270 -9 -44 -21 -91 -26 -105 -5 -14 -14 -48 -19 -75 -5
-28 -18 -102 -30 -165 -12 -63 -25 -137 -30 -165 -4 -27 -17 -104 -29 -170
-12 -66 -26 -147 -31 -180 -6 -33 -21 -118 -34 -190 -13 -71 -31 -188 -40
-260 -16 -128 -37 -277 -56 -405 -6 -36 -15 -105 -20 -155 -6 -49 -17 -139
-24 -200 -31 -238 -36 -285 -46 -421 -23 -318 -3 -547 63 -709 64 -159 118
-238 206 -303 65 -47 166 -112 176 -112 3 0 23 -11 44 -24 116 -74 500 -255
631 -299 26 -8 50 -24 56 -37 8 -14 12 -133 13 -368 1 -517 20 -661 97 -751
52 -60 84 -75 223 -100 23 -5 46 -13 50 -19 3 -6 8 -344 9 -752 2 -407 7 -751
12 -764 11 -30 57 -66 83 -66 11 0 39 11 62 25 33 19 44 32 49 57 3 18 6 182
6 363 2 684 4 749 24 779 23 35 79 59 121 52 32 -6 65 -35 82 -71 5 -11 10
-252 11 -565 3 -582 6 -624 53 -671 17 -17 31 -19 100 -17 l81 3 -1 177 -2
177 25 16 c28 19 61 13 71 -13 7 -15 33 -279 35 -339 0 -18 6 -23 25 -23 50 0
50 0 50 785 0 402 4 736 8 743 12 17 25 6 42 -36 9 -20 38 -71 65 -113 28 -43
50 -81 50 -85 0 -4 39 -58 88 -121 199 -259 278 -382 324 -506 30 -78 31 -89
32 -239 1 -183 7 -198 97 -236 69 -29 108 -23 164 22 58 48 72 83 84 217 16
172 0 254 -86 439 -48 105 -148 257 -283 435 -26 33 -64 87 -85 120 -22 33
-53 78 -70 101 -37 48 -147 289 -147 321 0 13 18 43 41 68 22 24 41 49 41 54
0 5 16 29 36 53 91 107 110 177 88 318 -15 98 -19 486 -5 523 8 21 18 26 68
31 123 15 281 57 358 94 124 61 255 201 309 330 44 104 95 274 107 357 28 191
31 224 25 268 -7 47 -7 47 -119 121 -62 41 -123 88 -136 106 -31 43 -38 100
-16 134 24 36 55 33 123 -13 80 -54 166 -101 184 -101 9 0 26 8 39 19 l23 19
-19 61 c-17 52 -30 72 -81 119 -34 31 -84 73 -113 92 -71 49 -94 83 -93 138 0
54 28 88 64 79 13 -4 48 -25 78 -47 64 -48 111 -70 150 -70 33 0 40 14 40 81
0 40 -6 58 -34 96 -19 27 -49 56 -68 67 -143 81 -198 140 -198 212 0 34 5 47
26 63 25 19 28 20 58 5 17 -9 38 -22 46 -29 33 -29 152 -86 172 -83 12 2 29
14 36 28 34 61 -40 179 -168 266 -93 62 -120 100 -120 165 0 38 5 51 22 63 12
9 28 16 34 16 7 0 52 -27 100 -60 101 -68 136 -80 165 -54 56 50 -10 176 -136
259 -92 60 -142 115 -150 164 -6 35 -3 48 12 70 11 14 29 27 39 29 11 1 61
-25 111 -58 74 -49 98 -61 125 -58 45 4 59 50 33 111 -26 58 -56 89 -160 162
-49 34 -98 76 -107 93 -37 63 -12 142 45 142 13 0 51 -20 85 -45 82 -60 108
-70 137 -51 28 18 35 58 35 203 0 217 -42 330 -200 541 -129 172 -520 536
-755 703 -203 145 -273 188 -346 214 -53 19 -346 27 -544 15z m448 -236 c98
-27 186 -71 280 -138 96 -69 260 -196 271 -211 6 -7 31 -30 56 -50 84 -68 252
-240 327 -333 80 -100 93 -132 24 -57 -23 25 -45 45 -49 45 -4 0 -45 39 -92
86 -100 101 -178 162 -355 275 -118 75 -315 169 -355 169 -9 0 -21 5 -26 10
-6 6 -47 13 -92 17 -86 6 -102 1 -162 -52 -23 -20 -42 -23 -205 -34 -229 -15
-369 -28 -470 -46 -44 -8 -129 -22 -190 -30 -117 -18 -221 -39 -295 -60 -25
-7 -76 -20 -115 -29 -234 -53 -353 -87 -440 -125 -28 -13 -86 -31 -98 -31 -16
0 2 81 31 138 25 49 59 90 110 133 56 47 217 111 388 154 99 25 208 54 244 64
36 10 101 24 145 30 44 7 145 23 225 36 80 14 222 31 314 39 93 9 171 18 174
21 3 3 63 5 134 5 108 0 144 -4 221 -26z m-147 -508 c115 -54 285 -185 463
-354 99 -94 116 -122 74 -122 -9 0 -39 17 -67 38 -106 79 -324 200 -479 266
-72 31 -160 36 -331 20 -89 -8 -183 -18 -211 -24 -27 -5 -86 -14 -130 -21 -44
-6 -113 -20 -153 -31 -40 -10 -89 -18 -110 -16 -37 3 -37 3 -35 44 3 69 22
124 46 133 70 27 345 74 522 90 66 6 134 13 150 15 17 2 64 3 106 2 65 -2 89
-8 155 -40z m-1199 -143 c4 -9 -1 -38 -10 -64 -9 -25 -17 -56 -17 -68 0 -21
-53 -51 -89 -51 -9 0 -45 -8 -81 -19 -68 -21 -150 -42 -237 -62 -46 -11 -57
-10 -93 6 -50 22 -64 46 -55 91 12 65 119 106 400 154 39 7 77 16 85 21 27 15
90 11 97 -8z m1098 -258 c94 -33 140 -58 245 -134 163 -117 370 -297 370 -321
0 -18 -28 -22 -53 -8 -13 7 -70 37 -128 67 -57 29 -129 69 -159 87 -30 19 -66
37 -80 40 -14 3 -43 14 -65 24 -22 10 -74 31 -115 47 -73 27 -81 28 -270 28
-189 0 -263 -7 -567 -51 -57 -9 -107 -13 -113 -9 -25 15 -3 158 26 169 35 14
165 38 254 47 52 6 151 17 220 24 164 18 368 13 435 -10z m-1181 -108 c17 -12
17 -20 7 -83 -7 -38 -16 -75 -20 -83 -5 -7 -68 -23 -150 -37 -78 -13 -148 -27
-154 -31 -7 -4 -37 -11 -67 -14 -30 -4 -74 -10 -96 -14 -98 -17 -160 100 -83
157 13 10 51 23 84 29 149 27 274 51 315 61 42 10 112 24 136 27 5 0 18 -5 28
-12z m1091 -299 c88 -18 199 -59 250 -91 76 -47 138 -91 157 -110 13 -13 59
-52 102 -88 99 -79 186 -159 186 -170 0 -4 -8 -15 -17 -24 -29 -29 -85 -13
-182 52 -79 54 -262 150 -386 203 -27 11 -59 25 -70 30 -52 24 -183 31 -380
19 -110 -6 -216 -15 -235 -20 -33 -9 -234 -30 -310 -33 l-35 -1 -3 50 c-5 74
5 110 32 123 31 14 126 26 396 52 333 31 385 32 495 8z m-1150 -157 c-5 -29
-19 -59 -41 -87 -40 -49 -49 -53 -124 -64 -64 -9 -156 -26 -220 -41 -25 -6
-74 -13 -110 -16 -57 -5 -69 -2 -92 17 -23 18 -28 29 -28 66 0 53 21 78 77 93
70 18 317 64 411 76 51 7 96 15 99 19 3 3 13 0 20 -6 11 -9 13 -24 8 -57z m69
-207 c25 -9 19 -26 -18 -56 -18 -15 -46 -48 -61 -74 -33 -57 -37 -140 -10
-198 33 -69 -26 -69 -71 0 -27 40 -24 157 5 217 27 56 72 104 104 110 12 2 25
5 29 6 3 0 13 -2 22 -5z m958 -68 c24 -8 64 -16 90 -20 47 -5 252 -89 276
-112 6 -7 22 -16 35 -20 33 -10 129 -81 242 -179 111 -96 122 -109 105 -131
-30 -35 -74 -20 -408 150 -76 39 -135 61 -267 102 -106 32 -116 33 -279 34
-96 0 -210 -6 -265 -14 -223 -33 -243 -29 -201 39 18 29 21 44 16 80 -8 52
-13 50 139 60 55 4 134 10 175 15 132 13 296 11 342 -4z m-1327 -140 c-17 -54
-16 -63 11 -95 23 -28 25 -34 13 -46 -13 -13 -266 -55 -328 -55 -53 0 -92 71
-66 120 17 34 72 57 168 71 40 6 95 16 122 23 65 16 89 10 80 -18z m1285 -306
c145 -28 183 -39 335 -103 80 -33 265 -161 368 -253 47 -43 50 -76 8 -94 -38
-15 -47 -12 -227 76 -83 41 -154 74 -158 74 -4 0 -26 8 -49 18 -43 19 -171 68
-242 93 -56 20 -530 14 -715 -8 -203 -25 -185 -29 -188 47 -2 50 2 72 17 96
l19 31 118 7 c66 4 151 11 189 15 96 11 470 12 525 1z m-1090 -112 c-1 -56
-15 -119 -31 -128 -18 -12 -111 -28 -229 -40 -58 -6 -146 -15 -197 -21 -123
-15 -155 -8 -176 36 -15 32 -15 38 -1 75 14 34 22 41 68 54 68 20 403 62 519
65 l47 1 0 -42z m900 -332 c163 -5 233 -18 345 -67 11 -4 65 -26 120 -47 105
-41 131 -55 210 -112 72 -52 220 -171 223 -179 1 -5 -6 -19 -17 -32 -33 -42
-94 -32 -241 38 -69 33 -179 83 -245 111 -108 46 -143 58 -265 93 -42 13 -638
5 -750 -9 -41 -5 -81 -7 -89 -4 -11 4 -12 22 -8 85 4 45 11 85 16 90 15 15
357 44 476 40 39 -2 140 -5 225 -7z m-942 -137 c-5 -92 -11 -98 -78 -99 -25
-1 -65 -5 -90 -11 -82 -18 -315 -49 -379 -51 -37 -1 -48 3 -68 26 -31 37 -31
90 1 119 29 27 138 53 300 72 65 8 121 17 124 20 3 3 48 5 100 5 l95 0 -5 -81z
m1057 -319 c28 -5 56 -18 63 -28 14 -18 10 -101 -9 -211 -16 -93 -11 -485 7
-571 28 -135 76 -247 141 -324 27 -33 44 -76 30 -76 -41 0 -210 157 -283 263
-30 43 -54 81 -54 84 0 3 -6 19 -14 36 -68 159 -87 244 -87 404 0 183 -38 243
-152 243 -113 0 -144 -104 -117 -395 28 -296 46 -377 111 -486 63 -105 50
-118 -39 -36 -32 28 -79 80 -104 115 -105 140 -140 269 -140 522 0 221 -20
260 -128 260 -106 0 -128 -39 -135 -242 -8 -242 36 -469 118 -603 76 -126 83
-145 40 -118 -103 65 -176 153 -239 288 -40 87 -45 104 -54 217 -11 123 -21
199 -40 313 -8 47 -17 66 -42 89 -27 25 -37 28 -79 24 -52 -5 -86 -35 -101
-85 -18 -65 -7 -466 15 -508 5 -10 18 -52 28 -91 18 -72 69 -187 89 -199 14
-9 12 -35 -3 -35 -31 0 -194 191 -226 265 -35 81 -70 309 -71 459 0 89 -16
141 -54 173 -53 45 -147 19 -182 -50 -14 -26 -17 -60 -17 -182 1 -256 33 -434
99 -548 41 -72 24 -92 -29 -34 -76 83 -165 257 -196 386 -18 70 -21 115 -21
280 0 282 1 286 92 297 24 3 65 9 91 14 26 6 80 10 120 10 40 1 99 7 132 15
33 8 80 15 105 15 25 0 61 4 80 9 19 6 112 15 205 21 94 6 217 18 275 25 124
16 694 12 775 -5z m-309 -1779 c106 -23 220 -72 261 -114 11 -10 15 -84 18
-338 5 -364 9 -394 80 -486 63 -83 31 -103 -82 -53 -86 39 -116 80 -133 183
-7 40 -16 86 -21 102 -11 37 -29 294 -29 422 0 114 -8 137 -61 164 -34 17 -56
20 -113 17 -86 -4 -131 -30 -141 -81 -3 -17 -10 -52 -15 -77 -35 -174 -42
-249 -46 -464 -4 -196 -7 -233 -20 -241 -12 -8 -24 -1 -54 33 -43 48 -39 13
-60 442 -13 250 -5 343 32 388 30 38 108 82 183 103 78 23 94 23 201 0z m744
-266 c0 -3 -18 -29 -39 -58 -54 -72 -85 -171 -78 -251 7 -85 42 -170 89 -214
21 -20 38 -42 38 -49 0 -18 -45 -16 -60 2 -7 8 -18 15 -24 15 -21 0 -84 73
-106 122 -11 26 -25 73 -31 104 -21 114 42 258 136 311 37 21 75 30 75 18z
m-198 -1607 c12 -10 17 -41 21 -131 6 -117 6 -118 -18 -129 -13 -6 -39 -8 -58
-4 -29 5 -36 12 -41 37 -11 56 -7 214 6 227 16 16 70 15 90 0z"/>
</g>
</svg>
