<?xml version="1.0" standalone="no"?>
<!DOCTYPE svg PUBLIC "-//W3C//DTD SVG 20010904//EN"
 "http://www.w3.org/TR/2001/REC-SVG-20010904/DTD/svg10.dtd">
<svg version="1.0" xmlns="http://www.w3.org/2000/svg"
 width="225.000000pt" height="225.000000pt" viewBox="0 0 225.000000 225.000000"
 preserveAspectRatio="xMidYMid meet">

<g transform="translate(0.000000,225.000000) scale(0.100000,-0.100000)"
fill="#000000" stroke="none">
<path d="M1040 1565 c-30 -22 -68 -75 -70 -97 0 -4 10 -8 23 -10 12 -2 22 -10
22 -18 0 -8 -10 -16 -22 -18 -15 -2 -23 -10 -23 -22 0 -12 8 -20 23 -22 27 -4
26 -22 -3 -26 -28 -5 -26 -40 3 -44 12 -2 22 -10 22 -18 0 -8 -10 -16 -22 -18
-28 -4 -31 -32 -4 -32 19 0 35 -23 24 -34 -4 -3 -15 -6 -25 -6 -18 0 -19 -7
-16 -124 3 -138 13 -162 78 -200 65 -38 156 -17 204 47 18 25 21 45 24 153 3
117 2 124 -16 124 -10 0 -21 3 -25 6 -11 11 5 34 24 34 27 0 24 28 -3 32 -13
2 -23 10 -23 18 0 8 10 16 23 18 14 2 22 10 22 22 0 12 -8 20 -22 22 -13 2
-23 8 -23 13 0 6 10 11 23 13 14 2 22 10 22 22 0 12 -8 20 -22 22 -30 4 -30
32 0 36 18 3 22 8 16 25 -30 96 -156 140 -234 82z"/>
<path d="M910 1028 c0 -49 6 -86 19 -114 21 -46 83 -102 123 -111 40 -8 55
-86 18 -98 -20 -6 -60 -51 -60 -66 0 -5 52 -9 115 -9 63 0 115 2 115 5 0 20
-28 56 -51 66 -19 7 -29 19 -29 33 0 44 12 65 39 71 41 9 101 63 122 109 20
44 27 170 10 181 -16 10 -29 -28 -28 -80 4 -147 -151 -235 -274 -156 -58 36
-83 87 -82 161 2 52 -9 80 -28 80 -5 0 -9 -33 -9 -72z"/>
<path d="M662 573 c3 -17 33 -18 463 -18 430 0 460 1 463 18 3 16 -24 17 -463
17 -439 0 -466 -1 -463 -17z"/>
<path d="M805 485 c-50 -49 -17 -135 51 -135 45 0 74 29 74 75 0 43 -37 85
-75 85 -14 0 -37 -11 -50 -25z m80 -29 c30 -45 -16 -101 -53 -64 -15 15 -15
61 0 76 18 18 36 14 53 -12z"/>
<path d="M1125 485 c-32 -31 -34 -86 -4 -116 24 -24 94 -24 94 1 0 11 -9 14
-32 12 -28 -3 -35 1 -43 24 -15 37 12 78 44 70 28 -7 40 3 25 21 -18 21 -58
15 -84 -12z"/>
<path d="M1283 498 c-11 -14 -53 -123 -53 -138 0 -16 27 -11 34 5 3 9 18 15
35 15 16 0 31 -6 35 -15 3 -8 11 -15 17 -15 16 0 6 56 -20 114 -21 48 -31 55
-48 34z m30 -68 c4 -15 0 -20 -15 -20 -14 0 -18 5 -14 16 3 9 6 20 6 25 0 17
17 1 23 -21z"/>
<path d="M1398 499 c-11 -6 -18 -22 -18 -38 0 -21 7 -31 33 -42 43 -19 41 -33
-6 -37 -32 -3 -36 -6 -26 -18 14 -17 70 -19 87 -2 24 24 14 58 -23 79 -36 21
-38 45 -4 36 23 -6 37 12 18 24 -18 11 -40 11 -61 -2z"/>
<path d="M660 426 c0 -61 3 -76 15 -76 9 0 15 9 15 25 0 20 5 25 23 25 37 0
63 35 51 68 -8 24 -15 27 -57 30 l-47 3 0 -75z m68 27 c-5 -26 -38 -29 -38 -4
0 15 6 21 21 21 14 0 19 -5 17 -17z"/>
<path d="M957 493 c-9 -8 -9 -106 -1 -127 9 -24 79 -21 104 4 26 26 27 90 2
113 -18 17 -92 24 -105 10z m81 -35 c17 -17 15 -44 -4 -62 -29 -30 -44 -20
-44 29 0 37 3 45 18 45 10 0 23 -5 30 -12z"/>
<path d="M1480 491 c0 -5 9 -12 20 -16 15 -5 20 -17 22 -62 4 -80 28 -85 28
-5 0 51 3 60 20 65 41 11 20 27 -35 27 -30 0 -55 -4 -55 -9z"/>
</g>
</svg>
