<?xml version="1.0" standalone="no"?>
<!DOCTYPE svg PUBLIC "-//W3C//DTD SVG 20010904//EN"
 "http://www.w3.org/TR/2001/REC-SVG-20010904/DTD/svg10.dtd">
<svg version="1.0" xmlns="http://www.w3.org/2000/svg"
 width="155.000000pt" height="50.000000pt" viewBox="0 0 155.000000 50.000000"
 preserveAspectRatio="xMidYMid meet">

<g transform="translate(0.000000,50.000000) scale(0.100000,-0.100000)"
fill="#000000" stroke="none">
<path d="M172 258 c1 -134 3 -225 5 -203 5 45 36 81 73 86 20 3 26 11 28 36 3
31 3 32 -44 35 -67 4 -71 28 -5 28 50 0 51 1 51 29 0 28 -2 30 -47 33 -66 4
-70 28 -4 28 50 0 51 1 51 29 0 28 -2 30 -47 33 -35 2 -48 7 -48 18 0 11 13
16 48 18 41 3 47 6 47 26 0 33 -19 46 -67 46 l-43 0 2 -242z"/>
</g>
</svg>
