<?xml version="1.0" standalone="no"?>
<!DOCTYPE svg PUBLIC "-//W3C//DTD SVG 20010904//EN"
 "http://www.w3.org/TR/2001/REC-SVG-20010904/DTD/svg10.dtd">
<svg version="1.0" xmlns="http://www.w3.org/2000/svg"
 width="1000.000000pt" height="1080.000000pt" viewBox="0 0 1000.000000 1080.000000"
 preserveAspectRatio="xMidYMid meet">

<g transform="translate(0.000000,1080.000000) scale(0.100000,-0.100000)"
fill="#000000" stroke="none">
<path d="M4790 9999 c-537 -25 -1048 -156 -1535 -393 -526 -256 -970 -606
-1341 -1056 -431 -522 -710 -1123 -840 -1806 l-27 -142 -41 -12 c-98 -28 -178
-99 -225 -199 -26 -56 -26 -57 -29 -344 -3 -244 -1 -296 13 -345 34 -116 111
-200 223 -242 50 -19 73 -21 222 -18 162 3 168 4 208 30 22 15 54 49 69 75
l28 48 3 395 c4 435 0 473 -49 533 -49 59 -99 80 -206 85 -51 2 -93 6 -93 8 0
3 14 74 30 159 209 1063 871 2001 1811 2565 475 285 996 461 1564 526 182 21
613 24 785 6 935 -100 1750 -492 2395 -1153 487 -499 823 -1099 989 -1764 26
-104 66 -305 66 -331 0 -11 -15 -14 -68 -14 -101 0 -161 -21 -210 -74 -22 -24
-45 -61 -51 -82 -7 -25 -11 -186 -11 -440 l0 -400 28 -55 c18 -35 42 -64 70
-84 l44 -30 181 0 c171 0 185 1 229 23 71 36 131 93 169 164 l34 63 0 325 c0
372 0 373 -92 471 -45 49 -146 109 -183 109 -11 0 -21 32 -38 133 -118 666
-414 1300 -856 1835 -106 128 -385 408 -514 515 -594 492 -1293 795 -2052 891
-105 14 -493 39 -525 34 -5 0 -84 -5 -175 -9z"/>
<path d="M4850 8699 c-154 -24 -323 -99 -450 -202 -184 -149 -321 -403 -337
-624 l-6 -83 132 0 133 0 29 -29 c39 -39 41 -106 5 -148 -24 -28 -26 -28 -163
-33 l-138 -5 -3 -82 -3 -83 125 0 c73 0 136 -5 150 -12 79 -35 75 -154 -5
-195 -15 -8 -69 -13 -146 -13 l-123 0 0 -80 0 -80 115 0 c164 0 215 -27 215
-113 0 -86 -27 -101 -195 -107 l-130 -5 0 -80 0 -80 132 -3 c129 -3 132 -3
162 -31 41 -38 44 -105 7 -148 -24 -28 -26 -28 -163 -33 l-138 -5 -3 -82 -3
-81 135 -4 c134 -3 135 -3 165 -32 26 -25 31 -37 31 -76 0 -39 -5 -51 -31 -76
-30 -29 -31 -29 -165 -32 l-134 -4 0 -351 c0 -489 11 -573 97 -757 241 -518
887 -697 1364 -378 193 129 329 324 391 560 20 77 21 114 25 505 l5 421 -137
4 -137 3 -29 33 c-40 45 -40 99 0 144 l29 33 137 3 136 4 -3 81 -3 82 -138 5
c-137 5 -139 5 -163 33 -44 51 -28 135 33 166 13 6 74 11 147 11 l126 0 0 85
0 85 -125 0 c-75 0 -134 5 -150 12 -51 23 -72 109 -39 157 28 39 73 51 199 51
l115 0 0 80 0 80 -120 0 c-129 0 -164 9 -194 52 -9 12 -16 40 -16 61 0 31 7
46 34 73 l34 34 131 0 132 0 -3 83 -3 82 -138 5 c-137 5 -139 5 -163 33 -17
20 -24 40 -24 72 0 32 7 52 24 72 24 28 26 28 163 33 l138 5 -4 60 c-5 92 -45
235 -91 328 -126 254 -353 434 -632 502 -80 20 -263 27 -348 14z"/>
<path d="M2823 7601 c-68 -43 -63 76 -63 -1571 0 -1183 2 -1497 12 -1518 20
-41 74 -72 125 -72 56 0 95 23 122 70 l21 38 0 1476 c0 1599 3 1513 -54 1565
-36 34 -118 40 -163 12z"/>
<path d="M7013 7601 c-68 -43 -64 77 -63 -1571 0 -844 4 -1499 9 -1512 17 -43
57 -71 112 -76 65 -6 108 15 138 68 l21 38 0 1476 c0 1599 3 1513 -54 1565
-36 34 -118 40 -163 12z"/>
<path d="M3323 7280 c-67 -41 -63 43 -63 -1252 0 -1146 1 -1174 20 -1205 56
-92 194 -81 246 19 12 23 14 211 14 1190 0 1143 0 1164 -20 1196 -42 68 -132
92 -197 52z"/>
<path d="M6513 7280 c-18 -10 -40 -34 -50 -52 -17 -31 -18 -98 -21 -1186 -2
-1125 -2 -1154 17 -1197 27 -62 71 -87 139 -82 38 3 59 10 78 28 57 52 54 -6
54 1241 0 1078 -1 1155 -18 1188 -37 74 -131 102 -199 60z"/>
<path d="M2340 6823 c-19 -10 -45 -33 -57 -52 l-23 -35 2 -717 3 -718 29 -30
c54 -56 134 -64 190 -20 58 46 56 16 56 781 0 679 -1 704 -20 735 -38 64 -117
88 -180 56z"/>
<path d="M7522 6820 c-33 -15 -47 -29 -62 -62 -19 -41 -20 -71 -20 -725 0
-605 2 -687 16 -723 31 -78 108 -107 188 -71 38 16 51 29 67 65 19 44 19 65
17 738 -3 670 -4 694 -23 726 -20 33 -86 72 -121 72 -10 0 -38 -9 -62 -20z"/>
<path d="M1860 6263 c-23 -9 -60 -45 -76 -75 -10 -19 -14 -65 -14 -158 0 -144
7 -169 60 -214 60 -50 168 -27 205 43 11 23 15 63 15 173 0 159 -10 192 -69
223 -29 15 -91 19 -121 8z"/>
<path d="M7995 6250 c-55 -36 -65 -70 -65 -218 0 -151 11 -191 64 -223 41 -25
112 -25 153 1 55 33 63 62 63 220 0 158 -8 187 -63 220 -42 26 -113 26 -152 0z"/>
<path d="M3787 5844 c-13 -13 -7 -71 8 -84 13 -10 15 -50 15 -239 0 -402 25
-543 130 -756 153 -311 439 -537 770 -611 161 -36 174 -50 178 -209 4 -141 -8
-167 -93 -210 l-60 -30 -222 -5 c-219 -5 -222 -5 -248 -30 -34 -32 -55 -72
-55 -105 l0 -25 786 0 786 0 -7 38 c-8 46 -27 76 -62 99 -23 15 -59 19 -243
23 -198 5 -219 7 -268 29 -29 13 -64 37 -77 53 -23 28 -25 37 -25 144 0 169
16 192 155 222 435 96 765 414 883 851 24 92 26 110 29 421 4 275 7 327 19
337 10 7 14 24 12 50 l-3 38 -89 3 c-97 3 -106 -1 -106 -50 0 -17 8 -33 20
-40 19 -12 20 -24 20 -263 0 -362 -24 -491 -128 -688 -129 -246 -353 -426
-638 -514 -83 -25 -102 -27 -274 -27 -220 -1 -288 13 -465 99 -296 143 -498
405 -564 732 -18 88 -21 138 -21 376 0 236 2 276 16 287 10 9 14 26 12 49 l-3
36 -90 3 c-50 1 -94 0 -98 -4z"/>
<path d="M1176 3348 c-9 -12 -16 -34 -16 -48 0 -14 7 -36 16 -48 l15 -22 3809
0 3809 0 15 22 c20 29 20 67 0 96 l-15 22 -3809 0 -3809 0 -15 -22z"/>
<path d="M2655 3060 c-223 -24 -381 -159 -441 -380 -25 -90 -25 -290 0 -380
54 -199 186 -330 378 -375 137 -32 333 -9 437 52 116 67 203 189 237 329 23
92 23 277 0 364 -71 278 -298 422 -611 390z m224 -211 c44 -22 73 -45 97 -78
113 -154 106 -446 -16 -585 -102 -116 -298 -127 -415 -24 -168 148 -163 532 9
663 52 40 101 54 187 55 65 0 84 -4 138 -31z"/>
<path d="M5060 3059 c-85 -7 -155 -32 -227 -78 -147 -96 -227 -245 -239 -451
-17 -282 114 -515 331 -591 77 -26 231 -36 317 -20 175 35 323 178 344 333 12
85 -46 142 -123 122 -37 -9 -47 -24 -92 -125 -42 -92 -123 -148 -226 -157
-163 -13 -273 78 -310 255 -40 186 5 379 109 470 54 47 101 63 190 63 113 0
176 -44 251 -173 34 -59 59 -77 106 -77 41 0 88 38 91 74 7 103 -50 200 -163
275 -100 67 -219 93 -359 80z"/>
<path d="M6187 3060 c-43 -8 -81 -40 -107 -90 -10 -19 -96 -233 -191 -475
-194 -492 -197 -506 -141 -556 37 -33 93 -39 128 -15 21 15 52 78 99 204 l27
73 225 -3 226 -3 37 -95 c64 -166 84 -190 152 -190 28 0 47 8 70 29 58 52 54
68 -151 576 -101 248 -192 464 -204 482 -37 54 -96 76 -170 63z m116 -450 c41
-113 78 -213 82 -222 7 -17 -5 -18 -158 -18 l-166 0 33 93 c19 50 55 152 81
225 26 73 49 131 50 130 2 -2 37 -95 78 -208z"/>
<path d="M7240 3060 c-90 -10 -136 -24 -200 -62 -96 -58 -140 -136 -140 -249
0 -77 24 -139 73 -188 65 -67 141 -98 383 -161 96 -25 137 -48 164 -92 47 -77
6 -171 -92 -213 -50 -20 -179 -20 -224 1 -46 22 -90 74 -120 142 -31 71 -49
90 -89 98 -38 7 -89 -16 -106 -48 -17 -31 -6 -116 21 -171 28 -56 99 -126 158
-156 137 -70 380 -67 515 6 112 62 169 151 175 276 5 104 -10 156 -65 217 -57
64 -133 100 -305 146 -177 47 -214 62 -249 96 -56 57 -31 140 55 179 46 21
157 26 203 8 37 -14 81 -56 103 -100 11 -20 31 -50 45 -68 22 -26 34 -31 69
-31 47 0 76 23 96 74 15 41 -10 121 -55 173 -41 49 -154 109 -218 117 -92 11
-135 12 -197 6z"/>
<path d="M1293 3040 c-42 -10 -63 -27 -80 -67 -17 -41 -19 -925 -2 -986 26
-95 167 -103 205 -12 10 25 14 81 14 210 l0 175 114 0 c230 0 349 33 429 119
62 66 80 127 75 249 -3 80 -9 106 -30 148 -51 98 -134 149 -270 164 -97 11
-408 11 -455 0z m364 -169 c79 -12 112 -28 140 -70 27 -41 32 -135 8 -181 -31
-60 -127 -89 -302 -90 l-73 0 0 175 0 175 83 0 c45 0 110 -4 144 -9z"/>
<path d="M3561 3037 c-19 -7 -44 -25 -55 -40 -20 -28 -21 -39 -24 -488 -2
-306 1 -473 8 -500 8 -28 21 -46 43 -59 29 -18 51 -20 262 -20 318 0 385 18
495 129 102 103 143 228 144 431 0 206 -46 333 -158 438 -76 70 -136 96 -258
112 -113 14 -414 12 -457 -3z m466 -192 c68 -20 132 -90 159 -172 25 -78 25
-273 1 -354 -24 -79 -73 -149 -127 -179 -42 -23 -57 -25 -197 -28 l-153 -4 0
383 0 382 133 -6 c74 -3 155 -13 184 -22z"/>
<path d="M7913 3039 c-41 -12 -63 -44 -63 -90 0 -29 7 -43 31 -63 30 -25 34
-26 180 -26 l149 0 0 -430 c0 -463 1 -468 52 -504 28 -20 80 -20 117 -2 55 29
56 34 59 503 l3 432 154 3 c174 3 190 10 201 80 5 30 1 41 -24 69 l-30 34
-399 2 c-229 1 -412 -2 -430 -8z"/>
<path d="M0 400 l0 -400 5000 0 5000 0 0 400 0 400 -5000 0 -5000 0 0 -400z
m2192 123 c23 -20 23 -57 1 -74 -15 -11 -16 -11 -5 1 27 31 11 72 -33 83 -19
4 -19 5 -1 6 11 0 28 -6 38 -16z m-69 -8 c-3 -9 -8 -14 -10 -11 -3 3 -2 9 2
15 9 16 15 13 8 -4z m-1760 -114 c22 -61 43 -108 47 -104 4 4 24 56 45 116 21
59 42 107 47 107 11 0 9 -5 -42 -149 -23 -64 -44 -107 -53 -109 -15 -3 -17 0
-67 143 -15 44 -31 88 -36 99 -5 13 -3 17 6 14 8 -2 32 -55 53 -117z m517 89
c0 -23 4 -30 20 -30 11 0 20 -4 20 -10 0 -5 -10 -10 -21 -10 -20 0 -21 -4 -17
-71 3 -55 8 -74 23 -85 23 -17 14 -29 -13 -15 -11 6 -22 25 -26 42 -10 51 -7
209 4 209 6 0 10 -13 10 -30z m515 16 c25 -11 33 -19 29 -30 -7 -19 -5 -19
-40 -1 -36 18 -55 19 -78 2 -28 -21 -9 -45 49 -62 87 -25 108 -74 54 -127 -29
-29 -33 -30 -90 -25 -68 6 -72 8 -64 29 5 13 12 14 40 5 50 -15 100 1 100 33
0 16 -8 28 -25 36 -87 40 -105 51 -108 67 -14 70 53 106 133 73z m105 -16 c0
-25 4 -30 25 -30 16 0 25 -6 25 -15 0 -9 -9 -15 -25 -15 -24 0 -25 -3 -25 -60
0 -55 2 -62 25 -72 14 -6 25 -15 25 -20 0 -18 -31 -20 -55 -4 -24 16 -25 20
-25 131 0 96 3 115 15 115 10 0 15 -10 15 -30z m482 -32 l3 -62 36 32 c20 18
45 32 55 32 14 0 9 -9 -21 -40 l-39 -40 42 -60 c40 -57 41 -60 20 -60 -16 0
-32 14 -53 45 -16 25 -33 45 -37 45 -5 0 -8 -20 -8 -45 0 -38 -3 -45 -20 -45
-19 0 -20 7 -20 130 0 122 1 130 20 130 16 0 19 -8 22 -62z m193 30 c1 -20 -2
-24 -11 -17 -8 7 -14 6 -17 -3 -3 -7 -6 2 -6 20 -1 27 3 33 17 30 11 -2 17
-13 17 -30z m-44 -35 c13 -16 12 -17 -3 -4 -17 13 -22 21 -14 21 2 0 10 -8 17
-17z m-1502 -19 c12 -15 21 -40 21 -55 0 -29 0 -29 -65 -29 -72 0 -83 -12 -44
-51 17 -17 30 -20 65 -16 43 4 59 -5 28 -17 -45 -17 -106 3 -123 41 -45 98 56
206 118 127z m191 16 c17 -11 10 -13 -40 -10 -47 2 -75 -28 -75 -80 0 -55 26
-80 82 -80 27 0 42 -4 38 -10 -9 -15 -78 -12 -102 5 -50 35 -50 135 0 170 24
17 74 20 97 5z m265 -13 c20 -16 28 -35 32 -69 5 -42 3 -50 -25 -78 -41 -41
-83 -41 -124 0 -28 28 -30 36 -25 78 9 82 84 119 142 69z m85 7 c0 -14 2 -14
22 0 24 17 38 20 38 9 0 -5 -14 -16 -30 -25 -29 -17 -30 -19 -30 -93 0 -43 -4
-75 -10 -75 -6 0 -10 40 -10 100 0 60 4 100 10 100 6 0 10 -7 10 -16z m537 1
c30 -21 44 -75 32 -120 -25 -88 -143 -88 -168 0 -20 72 20 135 84 135 17 0 40
-7 52 -15z m198 -5 c0 -10 -8 -14 -27 -12 -58 6 -91 -42 -67 -100 11 -28 36
-40 74 -35 12 1 20 -4 20 -13 0 -19 -48 -25 -85 -10 -63 26 -68 148 -6 179 31
15 91 9 91 -9z m5374 -83 c8 -26 17 -47 21 -47 4 0 13 21 21 47 8 25 20 48 27
51 8 2 4 -19 -12 -63 -36 -99 -36 -99 -72 0 -16 44 -20 65 -12 63 7 -3 19 -26
27 -51z m638 38 c2 -6 -9 -11 -23 -10 -38 0 -40 -20 -5 -35 69 -28 36 -101
-33 -74 -27 10 -18 22 15 20 43 -2 49 22 10 35 -34 12 -49 43 -30 65 13 16 60
15 66 -1z m333 -20 c0 -35 16 -47 26 -20 4 8 13 15 22 15 13 0 13 -3 -2 -19
-16 -18 -16 -21 -1 -50 19 -38 8 -40 -22 -3 l-22 27 -1 -27 c0 -16 -4 -28 -10
-28 -6 0 -10 30 -10 70 0 40 4 70 10 70 6 0 10 -16 10 -35z m580 32 c0 -4 -34
-104 -45 -136 -3 -8 -8 -11 -11 -8 -8 7 38 147 48 147 4 0 8 -2 8 -3z m98 -9
c21 -21 13 -45 -25 -77 l-38 -30 43 -1 c23 0 42 -4 42 -10 0 -5 -22 -10 -50
-10 -62 0 -65 15 -14 63 42 40 39 62 -8 53 -26 -5 -29 -4 -18 9 15 18 51 20
68 3z m112 2 c0 -5 -11 -10 -25 -10 -32 0 -32 -16 -1 -24 27 -7 41 -35 31 -65
-7 -23 -37 -35 -65 -26 -31 10 -24 23 13 21 28 -1 32 2 32 24 0 22 -4 25 -33
23 -26 -1 -32 2 -28 14 3 8 6 23 6 34 0 15 7 19 35 19 19 0 35 -4 35 -10z
m120 0 c0 -5 -11 -10 -25 -10 -14 0 -29 -8 -36 -21 -9 -18 -8 -20 9 -15 12 4
28 -1 43 -13 21 -16 22 -22 11 -45 -21 -47 -92 -23 -92 31 0 27 17 64 34 75
16 11 56 10 56 -2z m97 -2 c14 -23 12 -106 -2 -118 -33 -27 -86 8 -70 46 4 11
7 27 6 37 -5 38 47 64 66 35z m121 0 c21 -21 13 -45 -25 -77 l-38 -30 43 -1
c23 0 42 -4 42 -10 0 -5 -22 -10 -50 -10 -62 0 -65 15 -14 63 42 40 39 62 -8
53 -26 -5 -29 -4 -18 9 15 18 51 20 68 3z m110 4 c22 -14 27 -78 8 -107 -32
-49 -86 -21 -86 45 0 56 39 86 78 62z m132 3 c0 -6 -60 -127 -66 -134 -2 -2
-7 -2 -10 1 -3 3 6 29 20 57 14 28 26 53 26 56 0 3 -13 5 -30 5 -16 0 -30 5
-30 10 0 6 20 10 45 10 25 0 45 -2 45 -5z m100 0 c0 -6 -60 -127 -66 -134 -2
-2 -7 -2 -10 1 -3 3 6 29 20 57 14 28 26 53 26 56 0 3 -13 5 -30 5 -16 0 -30
5 -30 10 0 6 20 10 45 10 25 0 45 -2 45 -5z m-2100 -40 c9 -10 9 -15 1 -15
-15 0 -14 -57 2 -63 6 -2 9 -8 4 -13 -12 -13 -34 18 -40 58 -7 49 8 64 33 33z
m360 0 c9 -10 9 -15 1 -15 -15 0 -14 -57 2 -63 6 -2 9 -7 6 -11 -15 -17 -37 8
-41 47 -7 58 5 74 32 42z m-532 -7 c23 -23 13 -38 -24 -38 -41 0 -44 -24 -3
-27 42 -2 44 -3 29 -13 -35 -23 -80 1 -80 44 0 28 18 46 45 46 12 0 26 -5 33
-12z m109 5 c14 -6 10 -9 -17 -13 -29 -4 -35 -9 -35 -30 0 -21 5 -26 33 -28
36 -4 34 -22 -3 -22 -28 0 -55 24 -55 50 0 22 25 50 45 50 7 0 22 -3 32 -7z
m177 -9 c21 -20 20 -43 -1 -66 -20 -22 -46 -23 -67 -2 -31 30 -9 84 34 84 10
0 26 -7 34 -16z m86 6 c0 -4 -7 -10 -15 -14 -9 -3 -15 -19 -15 -41 0 -19 -4
-35 -10 -35 -5 0 -10 22 -10 49 0 45 2 49 25 49 14 0 25 -4 25 -8z m274 -6
c31 -30 9 -84 -34 -84 -24 0 -50 26 -50 50 0 24 26 50 50 50 10 0 26 -7 34
-16z m113 9 c14 -6 10 -9 -17 -13 -29 -4 -35 -9 -35 -30 0 -21 6 -26 35 -30
27 -4 31 -7 17 -13 -10 -4 -25 -7 -32 -7 -20 0 -45 28 -45 50 0 22 25 50 45
50 7 0 22 -3 32 -7z m258 -2 c3 -5 -9 -11 -27 -13 -28 -2 -33 -7 -33 -28 0
-21 5 -26 33 -28 36 -4 34 -22 -3 -22 -28 0 -55 24 -55 50 0 37 67 69 85 41z
m99 -7 c21 -20 20 -43 -1 -66 -20 -22 -46 -23 -67 -2 -31 30 -9 84 34 84 10 0
26 -7 34 -16z m112 5 c8 -7 14 -6 19 1 10 16 42 12 49 -6 10 -25 7 -84 -4 -84
-5 0 -10 18 -10 41 0 33 -3 40 -17 37 -13 -2 -19 -14 -21 -41 -4 -50 -22 -47
-22 4 0 36 -2 40 -22 37 -19 -2 -24 -10 -26 -40 -5 -55 -22 -46 -22 10 0 48 0
49 32 50 18 0 38 -4 44 -9z m-326 -79 c0 -5 -4 -10 -10 -10 -5 0 -10 5 -10 10
0 6 5 10 10 10 6 0 10 -4 10 -10z"/>
<path d="M2150 500 c0 -5 5 -10 10 -10 6 0 10 5 10 10 0 6 -4 10 -10 10 -5 0
-10 -4 -10 -10z"/>
<path d="M536 418 c-28 -39 -21 -48 39 -48 59 0 67 9 45 51 -15 27 -64 25 -84
-3z"/>
<path d="M986 424 c-50 -50 -21 -144 44 -144 48 0 80 50 66 104 -13 53 -75 75
-110 40z"/>
<path d="M1616 408 c-32 -46 -8 -118 39 -118 28 0 55 34 55 70 0 36 -27 70
-55 70 -13 0 -31 -10 -39 -22z"/>
<path d="M9096 331 c-11 -18 6 -42 28 -39 29 4 29 42 -1 46 -11 2 -24 -1 -27
-7z"/>
<path d="M9212 374 c2 -11 11 -20 22 -22 13 -3 17 1 14 14 -2 11 -11 20 -22
22 -13 3 -17 -1 -14 -14z"/>
<path d="M9204 325 c-8 -21 10 -39 30 -32 22 9 20 24 -4 37 -16 9 -22 8 -26
-5z"/>
<path d="M9434 365 c-9 -38 3 -75 26 -75 13 0 22 9 26 25 9 38 -3 75 -26 75
-13 0 -22 -9 -26 -25z"/>
<path d="M7395 340 c-4 -6 5 -10 19 -10 14 0 26 5 26 10 0 6 -9 10 -19 10 -11
0 -23 -4 -26 -10z"/>
<path d="M7674 336 c-10 -26 4 -48 28 -44 17 2 23 10 23 28 0 18 -6 26 -23 28
-13 2 -25 -3 -28 -12z"/>
<path d="M8034 336 c-10 -26 4 -48 28 -44 17 2 23 10 23 28 0 18 -6 26 -23 28
-13 2 -25 -3 -28 -12z"/>
<path d="M8504 336 c-10 -26 4 -48 28 -44 17 2 23 10 23 28 0 18 -6 26 -23 28
-13 2 -25 -3 -28 -12z"/>
</g>
</svg>
