<?xml version="1.0" standalone="no"?>
<!DOCTYPE svg PUBLIC "-//W3C//DTD SVG 20010904//EN"
 "http://www.w3.org/TR/2001/REC-SVG-20010904/DTD/svg10.dtd">
<svg version="1.0" xmlns="http://www.w3.org/2000/svg"
 width="1000.000000pt" height="1080.000000pt" viewBox="0 0 1000.000000 1080.000000"
 preserveAspectRatio="xMidYMid meet">

<g transform="translate(0.000000,1080.000000) scale(0.100000,-0.100000)"
fill="#000000" stroke="none">
<path d="M4693 8720 c-217 -27 -420 -171 -513 -364 -56 -116 -70 -190 -70
-382 l0 -161 -72 -28 c-195 -75 -419 -201 -600 -337 -548 -413 -903 -1025
-993 -1713 -18 -137 -21 -467 -5 -585 5 -41 10 -82 10 -90 0 -13 -51 -22 -290
-50 l-290 -35 0 -47 c0 -41 3 -48 19 -48 21 0 966 114 2851 345 1252 153 3154
385 3208 391 l52 6 0 49 c0 33 -4 49 -12 49 -7 0 -119 -13 -248 -30 -129 -16
-235 -28 -237 -27 -1 2 -9 52 -18 112 -108 734 -512 1369 -1129 1774 -116 75
-324 183 -447 232 l-87 33 -4 186 c-4 167 -7 193 -31 266 -70 213 -248 378
-472 440 -71 19 -502 29 -622 14z m217 -323 c0 -161 3 -218 13 -231 14 -20 62
-25 78 -9 5 5 11 107 12 229 l2 219 49 3 c32 2 52 -1 57 -10 5 -7 9 -109 9
-226 0 -211 0 -213 23 -221 12 -5 29 -6 37 -3 37 12 40 32 40 245 l0 209 33
-7 c83 -19 77 0 77 -230 l0 -205 26 -11 c20 -7 32 -6 50 6 24 15 24 18 24 190
0 96 4 175 8 175 17 0 120 -101 156 -153 50 -72 85 -172 93 -263 l6 -74 -237
0 -236 0 0 -45 0 -45 235 0 235 0 0 -45 0 -45 -235 0 -235 0 0 -45 0 -45 235
0 235 0 0 -45 0 -45 -235 0 -235 0 0 -45 0 -45 235 0 235 0 0 -45 0 -45 -235
0 -235 0 0 -45 0 -45 235 0 235 0 0 -45 0 -45 -235 0 -235 0 0 -45 0 -45 235
0 235 0 0 -50 0 -50 -235 0 -235 0 0 -40 0 -40 235 0 235 0 0 -50 0 -50 -235
0 -235 0 0 -40 0 -40 235 0 235 0 0 -37 c-1 -120 -57 -256 -145 -351 -66 -71
-132 -115 -223 -150 -64 -25 -77 -26 -325 -30 -300 -4 -358 3 -472 58 -175 84
-305 281 -305 462 l0 48 235 0 235 0 0 40 0 40 -235 0 -235 0 0 50 0 50 235 0
235 0 0 40 0 40 -235 0 -235 0 0 50 0 50 235 0 235 0 0 45 0 45 -235 0 -235 0
0 45 0 45 235 0 235 0 0 45 0 45 -235 0 -235 0 0 45 0 45 235 0 235 0 0 45 0
45 -235 0 -235 0 0 45 0 45 235 0 235 0 0 45 0 45 -235 0 -235 0 0 45 0 45
235 0 235 0 0 45 0 45 -235 0 -235 0 0 48 c0 68 25 163 61 235 31 60 164 207
188 207 8 0 11 -53 11 -175 l0 -175 25 -16 c23 -15 27 -15 50 0 l25 16 0 204
0 204 44 11 c25 6 50 11 55 11 8 0 11 -71 11 -215 l0 -215 24 -15 c18 -12 30
-13 50 -6 l26 11 0 218 c0 120 3 222 7 225 3 4 28 7 55 7 l48 0 0 -213z m-800
-1104 l-1 -368 -57 -34 c-173 -104 -383 -299 -506 -469 l-58 -82 515 -523
c515 -522 515 -522 486 -531 -26 -8 -34 -6 -53 15 -13 13 -218 236 -456 494
-238 259 -447 485 -464 503 l-32 33 -48 -87 c-47 -84 -48 -87 -30 -104 11 -10
245 -207 521 -438 492 -412 513 -432 452 -432 -11 0 -182 146 -406 347 -214
191 -433 387 -487 436 l-99 89 -15 -27 c-7 -15 -24 -55 -37 -89 l-24 -63 486
-334 c268 -184 496 -342 507 -351 21 -17 20 -17 -19 -18 -37 0 -59 14 -230
140 -105 77 -315 232 -467 344 -153 113 -280 202 -282 198 -7 -11 -47 -174
-44 -177 2 -1 209 -116 461 -255 438 -243 478 -269 410 -270 -12 0 -210 113
-440 251 -230 138 -423 253 -429 256 -10 3 -41 -164 -32 -172 2 -2 178 -80
390 -173 213 -93 385 -172 381 -176 -22 -22 -92 5 -417 160 -191 91 -350 164
-352 161 -2 -2 -7 -40 -10 -83 l-7 -79 272 -90 c149 -49 271 -93 271 -97 0
-22 -85 0 -295 77 -127 47 -234 85 -236 85 -6 0 -1 -112 6 -146 4 -17 17 -23
72 -33 38 -7 75 -16 83 -21 24 -15 -49 -12 -103 4 -44 13 -47 13 -47 -5 0 -10
-6 -19 -12 -19 -7 0 -152 -18 -323 -39 -170 -21 -313 -36 -317 -32 -16 15 -30
265 -25 431 7 194 31 362 78 538 185 700 694 1292 1359 1583 47 21 91 38 98
38 9 1 12 -79 12 -366z m1845 314 c425 -190 804 -522 1052 -922 182 -292 313
-662 348 -980 l6 -60 -313 -38 c-172 -21 -322 -40 -334 -42 -19 -4 -22 2 -32
71 -5 42 -12 78 -15 80 -2 3 -88 -45 -190 -106 -135 -82 -192 -111 -211 -108
-21 2 17 27 188 122 118 66 214 122 212 125 -2 3 -11 41 -21 84 -11 48 -23 77
-30 75 -7 -2 -143 -100 -304 -218 -195 -144 -304 -218 -328 -223 -20 -4 -38
-6 -40 -4 -2 2 150 109 336 237 l340 233 -30 81 c-16 44 -29 81 -29 83 0 17
-55 -27 -252 -204 -553 -497 -504 -456 -543 -451 -23 3 27 48 379 343 l405
339 -42 80 c-23 43 -46 79 -52 80 -5 0 -186 -190 -401 -423 -216 -234 -400
-428 -408 -433 -9 -5 -28 -8 -41 -6 -21 3 15 43 277 308 166 168 363 366 437
442 l134 136 -55 79 c-30 43 -58 78 -61 78 -5 0 -338 -434 -704 -918 -89 -117
-106 -135 -135 -140 -44 -6 -46 -2 -16 31 21 23 166 200 791 970 l59 72 -27
33 c-15 17 -46 52 -68 76 l-41 44 -15 -22 c-16 -24 -47 -73 -500 -803 -226
-364 -255 -407 -282 -413 -17 -4 -32 -5 -34 -3 -3 2 182 284 411 627 l415 622
-52 46 c-83 75 -167 140 -246 190 l-73 46 0 369 0 369 23 -7 c12 -3 63 -25
112 -47z m-181 -895 c-15 -40 -29 -70 -32 -67 -3 3 7 37 23 76 36 91 43 84 9
-9z m226 8 c-5 -10 -156 -313 -334 -673 -293 -593 -326 -655 -351 -661 -15 -4
-30 -5 -32 -2 -3 3 137 272 312 598 413 771 406 758 411 758 3 0 0 -9 -6 -20z
m-1861 -293 c321 -602 566 -1055 568 -1053 2 1 -20 61 -47 132 -27 71 -50 135
-50 142 0 6 9 12 21 12 15 0 26 -14 45 -55 13 -31 24 -64 24 -75 0 -10 5 -22
11 -26 6 -3 19 -25 30 -48 l19 -41 -6 35 c-3 19 -7 39 -8 44 0 6 7 12 17 14
15 3 17 -5 17 -60 0 -44 -3 -59 -10 -48 -11 17 -13 10 -4 -13 3 -9 14 -12 30
-9 21 4 24 1 24 -25 l0 -29 -127 -15 c-71 -8 -136 -14 -145 -14 -10 0 -87 94
-195 235 -98 129 -250 330 -338 445 -87 116 -209 275 -270 355 -112 146 -143
191 -113 160 8 -8 221 -269 473 -580 252 -311 467 -574 478 -585 l20 -20 -17
28 c-9 15 -184 296 -388 625 -540 870 -540 871 22 27 227 -341 417 -624 422
-630 13 -13 -41 98 -379 778 -156 312 -283 570 -283 574 0 16 22 -23 159 -280z
m1354 -450 l-228 -596 -35 -5 c-116 -18 -133 -18 -126 -7 4 6 15 11 25 11 14
0 20 10 24 38 9 66 24 92 52 92 25 0 25 1 25 75 0 68 2 75 20 75 26 0 26 -4
-15 -145 -18 -66 -32 -121 -31 -122 1 -2 101 232 221 519 206 494 284 672 292
665 2 -2 -99 -272 -224 -600z m-1151 416 c9 -16 73 -164 142 -329 102 -245
126 -311 126 -350 0 -29 -4 -44 -9 -38 -5 5 -63 151 -129 324 -66 173 -130
339 -141 368 -22 56 -16 70 11 25z m1104 -118 c-3 -8 -29 -102 -57 -208 -29
-105 -56 -196 -61 -201 -4 -6 -8 15 -8 46 0 55 79 336 102 366 14 17 31 15 24
-3z m-889 -17 c19 -24 53 -151 53 -197 0 -64 -13 -42 -44 74 -15 55 -29 108
-32 118 -6 20 9 23 23 5z m693 -268 l0 -260 -65 0 -65 0 0 170 0 170 -155 0
-155 0 0 -170 0 -170 -65 0 -65 0 0 260 0 260 285 0 285 0 0 -260z m-170 -135
l0 -155 40 0 40 0 0 -60 0 -60 -40 0 -40 0 0 -65 0 -65 -115 0 -115 0 0 65 0
65 -40 0 -40 0 0 60 0 60 40 0 40 0 0 155 0 155 115 0 115 0 0 -155z m-50
-479 c0 -19 -6 -24 -37 -30 -21 -3 -53 -6 -70 -6 -30 0 -33 3 -33 30 l0 30 70
0 c67 0 70 -1 70 -24z"/>
<path d="M4502 6688 c-8 -8 -12 -48 -12 -115 l0 -103 48 -31 47 -30 3 132 c2
88 -1 136 -9 145 -14 17 -61 18 -77 2z"/>
<path d="M4718 6689 c-16 -9 -18 -28 -18 -158 l0 -148 38 -7 c20 -3 43 -6 50
-6 17 0 17 301 0 318 -15 15 -47 15 -70 1z"/>
<path d="M4926 6685 c-14 -15 -16 -38 -14 -163 l3 -147 47 -3 47 -3 3 142 c2
84 -1 151 -7 163 -13 27 -57 32 -79 11z"/>
<path d="M5142 6687 c-11 -13 -19 -303 -9 -313 3 -3 26 -2 51 1 l46 7 0 143
c0 117 -3 146 -16 159 -19 19 -58 21 -72 3z"/>
<path d="M5351 6686 c-8 -9 -11 -57 -9 -145 l3 -132 48 30 47 31 0 103 c0 67
-4 107 -12 115 -16 16 -63 15 -77 -2z"/>
<path d="M3816 7264 l-18 -64 -72 0 -71 0 57 -40 57 -41 -20 -56 c-10 -31 -19
-60 -19 -65 0 -6 22 6 49 26 27 20 54 36 60 36 6 0 33 -16 61 -36 27 -20 50
-34 50 -32 0 3 -9 31 -20 64 -23 66 -29 53 51 116 l34 27 -66 1 -66 0 -18 60
c-10 34 -21 63 -25 65 -3 2 -14 -25 -24 -61z"/>
<path d="M3273 6710 l-19 -65 -69 -5 -70 -5 53 -37 c28 -21 52 -42 52 -46 0
-5 -9 -34 -19 -65 -11 -32 -18 -57 -15 -57 3 0 26 16 51 35 25 19 50 35 56 35
5 0 32 -16 58 -35 27 -19 51 -35 53 -35 2 0 -5 25 -15 57 -11 31 -19 60 -19
64 0 5 23 26 51 46 l50 38 -67 5 -67 5 -22 65 -22 65 -20 -65z"/>
<path d="M2968 6114 c-3 -5 -13 -35 -22 -66 l-17 -58 -67 0 -67 -1 30 -22 c16
-12 40 -31 53 -42 l23 -20 -21 -59 c-11 -33 -20 -61 -20 -63 0 -3 25 13 56 35
l57 40 53 -39 c30 -22 54 -36 54 -31 0 5 -9 34 -19 65 l-20 57 56 39 55 40
-68 3 -67 3 -22 64 c-12 36 -24 61 -27 55z"/>
<path d="M2881 5395 l-13 -65 -38 0 c-21 0 -52 -3 -69 -6 l-32 -7 59 -33 59
-34 -14 -61 c-8 -34 -12 -63 -11 -65 2 -2 25 15 50 37 l47 40 33 -17 c18 -9
45 -25 61 -36 15 -11 27 -17 27 -14 0 2 -12 32 -26 66 -15 33 -25 62 -23 63 2
1 26 22 53 46 l49 44 -71 -7 -70 -7 -23 60 c-13 34 -26 61 -30 61 -3 0 -11
-29 -18 -65z"/>
<path d="M6098 7324 c-3 -5 -13 -35 -22 -66 l-17 -58 -71 0 -71 0 56 -41 c32
-22 57 -41 57 -43 0 -2 -9 -29 -20 -61 -11 -32 -18 -60 -17 -62 2 -2 25 13 50
32 25 19 51 35 58 35 6 0 33 -16 60 -36 27 -20 49 -32 49 -26 0 5 -9 34 -19
65 l-20 56 57 41 57 40 -71 0 -71 0 -20 67 c-11 36 -22 62 -25 57z"/>
<path d="M6624 6707 l-20 -62 -68 -5 -67 -5 51 -38 c48 -36 51 -41 45 -70 -4
-18 -13 -47 -21 -64 -7 -18 -10 -33 -7 -33 3 0 27 16 53 35 26 19 52 35 57 35
6 0 31 -16 56 -35 25 -19 48 -35 51 -35 3 0 -4 25 -15 57 -10 31 -19 60 -19
65 0 4 24 25 52 46 l53 37 -69 5 -68 5 -18 58 c-10 32 -20 60 -22 63 -2 2 -13
-24 -24 -59z"/>
<path d="M6944 6057 l-19 -62 -68 -3 -69 -3 55 -40 56 -39 -20 -57 c-10 -31
-19 -60 -19 -65 0 -5 24 9 54 31 l54 40 56 -40 c31 -22 56 -38 56 -36 0 2 -9
30 -20 63 l-21 59 24 20 c13 11 37 30 53 42 l29 22 -66 0 -66 1 -18 60 c-10
34 -21 63 -25 65 -4 2 -15 -24 -26 -58z"/>
<path d="M7855 5349 c-77 -10 -146 -18 -152 -18 -10 -1 -13 -89 -13 -407 l0
-406 23 5 c12 3 93 14 180 23 l157 18 0 79 0 79 -75 -7 -75 -7 0 90 0 90 65 7
65 7 0 76 0 75 -65 -7 -65 -7 0 79 0 79 70 7 70 7 0 80 c0 92 23 85 -185 58z"/>
<path d="M7458 5302 l-126 -15 -6 -31 c-3 -17 -13 -96 -22 -176 -9 -80 -20
-148 -23 -153 -4 -4 -18 70 -31 164 -14 105 -28 173 -35 175 -7 3 -66 -2 -131
-10 -65 -9 -122 -16 -126 -16 -8 0 -12 -793 -4 -801 3 -3 43 0 90 5 l86 9 0
256 c0 141 4 249 9 241 4 -8 23 -120 41 -249 l34 -233 59 5 c33 3 63 10 67 16
3 6 19 111 34 234 16 122 32 238 36 257 5 20 8 -80 9 -229 l1 -263 43 5 c23 4
63 9 90 13 l47 6 0 404 c0 222 -3 403 -7 403 -5 -1 -65 -8 -135 -17z"/>
<path d="M6623 5201 c-67 -9 -124 -18 -127 -21 -5 -6 -106 -761 -106 -796 0
-20 2 -20 102 -7 55 7 102 14 104 16 2 2 6 35 10 74 l7 71 36 5 c20 2 37 3 39
2 2 -2 6 -34 9 -73 6 -70 6 -71 32 -67 14 3 59 9 99 14 41 5 76 12 79 15 3 3
-20 171 -51 375 -31 203 -56 379 -56 390 0 25 -5 25 -177 2z m45 -348 c7 -80
14 -151 15 -157 1 -6 -16 -12 -37 -14 l-39 -3 6 43 c3 24 11 96 18 161 7 64
16 117 19 117 3 0 11 -66 18 -147z"/>
<path d="M6255 5156 l-80 -11 -3 -180 -4 -180 -57 170 -58 170 -44 -2 c-24 -1
-63 -5 -86 -8 l-43 -6 0 -405 c0 -381 1 -405 18 -400 9 2 47 8 84 12 l68 6 2
182 3 181 28 -87 c15 -49 39 -127 53 -174 l27 -86 61 7 c34 3 73 8 89 11 l27
6 0 404 c0 222 -1 403 -2 403 -2 -1 -39 -7 -83 -13z"/>
<path d="M5393 5052 l-203 -25 0 -79 0 -80 60 7 60 7 0 -322 0 -323 77 7 c42
4 89 10 105 13 l28 6 0 322 0 322 63 9 62 9 3 78 3 77 -28 -1 c-15 -1 -119
-13 -230 -27z"/>
<path d="M4855 5001 c-42 -11 -107 -45 -127 -68 -53 -58 -66 -212 -25 -293 19
-39 36 -53 118 -100 122 -70 126 -73 134 -120 13 -74 -17 -130 -59 -114 -13 5
-16 23 -16 85 l0 80 -52 -7 c-29 -4 -73 -10 -98 -13 l-45 -7 2 -77 c2 -101 23
-144 83 -175 39 -20 56 -23 126 -20 98 5 179 40 222 95 24 33 27 46 30 137 2
55 -1 116 -7 137 -15 49 -73 100 -170 149 -44 22 -85 49 -91 59 -26 50 5 143
43 128 17 -6 19 -18 20 -86 l1 -33 65 6 c36 4 81 9 100 13 l34 6 -7 71 c-11
118 -45 148 -170 152 -44 2 -94 0 -111 -5z"/>
<path d="M4377 4930 c-76 -10 -140 -20 -142 -22 -3 -3 -29 -194 -87 -646 -11
-89 -19 -164 -17 -166 5 -5 197 19 203 24 2 3 8 37 13 75 l8 70 36 3 c34 3 37
1 43 -29 3 -17 6 -49 6 -71 0 -40 0 -40 33 -35 17 4 65 9 105 13 59 5 72 10
72 24 0 9 -23 165 -50 346 -28 181 -53 351 -58 378 -4 27 -11 50 -17 51 -5 1
-72 -6 -148 -15z m42 -482 c1 -37 0 -38 -34 -38 -20 0 -35 5 -35 12 0 29 32
285 37 298 6 14 31 -195 32 -272z"/>
<path d="M3767 4863 c-63 -24 -112 -64 -140 -116 -21 -41 -22 -51 -22 -312 0
-253 1 -273 21 -310 13 -27 35 -48 65 -63 38 -20 55 -23 129 -20 71 3 94 9
139 33 61 34 107 85 121 135 6 19 10 72 10 117 l0 81 -37 -4 c-21 -3 -65 -8
-98 -12 l-60 -7 -2 -55 c-5 -103 -13 -139 -34 -151 -15 -7 -24 -7 -35 2 -11 9
-14 59 -14 278 0 277 2 291 42 291 29 0 38 -33 38 -135 l0 -97 33 6 c17 3 62
8 100 12 l67 7 -1 101 c0 122 -12 159 -62 200 -36 29 -45 31 -125 34 -63 1
-100 -3 -135 -15z"/>
<path d="M3185 4785 c-55 -7 -110 -14 -122 -14 l-23 -1 0 -406 0 -406 38 6
c20 3 93 13 162 21 148 18 188 28 225 57 52 40 55 63 55 368 0 305 -4 333 -55
366 -35 23 -149 27 -280 9z m115 -135 c13 -8 15 -47 15 -251 l0 -241 -24 -19
c-13 -10 -27 -19 -32 -19 -5 0 -9 119 -9 270 0 251 1 270 18 270 9 0 24 -5 32
-10z"/>
<path d="M2683 4740 c-92 -19 -167 -80 -194 -157 -10 -28 -14 -104 -14 -293
l0 -255 27 -46 c37 -63 81 -84 178 -83 92 0 164 29 214 84 57 63 61 87 61 370
0 250 0 256 -24 296 -41 73 -141 107 -248 84z m61 -146 c11 -28 7 -514 -4
-535 -13 -23 -46 -25 -54 -3 -11 28 -7 514 4 535 13 23 46 25 54 3z"/>
<path d="M2078 4652 l-118 -15 0 -405 0 -404 28 5 c16 3 63 9 105 13 l77 7 0
163 0 163 38 6 c79 12 139 35 168 66 29 30 29 30 32 174 4 172 -6 204 -69 229
-47 19 -104 19 -261 -2z m150 -134 c7 -7 12 -43 12 -89 0 -82 -12 -109 -51
-109 -18 0 -19 8 -19 105 0 103 0 105 23 105 13 0 28 -5 35 -12z"/>
<path d="M7450 4239 c-349 -43 -1060 -130 -1580 -194 -520 -63 -1168 -142
-1440 -175 -272 -33 -929 -113 -1460 -178 l-965 -118 -3 -47 c-3 -45 -2 -47
23 -47 25 0 1066 125 1116 134 22 4 41 -9 115 -76 361 -328 795 -539 1291
-629 149 -26 515 -37 685 -20 640 66 1255 389 1668 876 59 70 206 269 235 319
8 14 42 22 165 37 320 39 819 99 824 99 3 0 6 23 6 50 0 46 -2 50 -22 49 -13
-1 -309 -37 -658 -80z m-494 -175 c-16 -43 -175 -234 -291 -349 -367 -368
-814 -594 -1350 -682 -153 -25 -533 -25 -690 0 -145 22 -324 67 -455 112 -152
53 -387 170 -525 262 -132 88 -304 225 -288 230 5 2 242 32 527 67 l517 63
107 -28 c334 -90 707 -75 1029 40 106 37 241 101 313 146 32 20 93 30 546 85
280 33 514 63 519 65 27 10 47 4 41 -11z"/>
<path d="M5993 3839 c-18 -5 -51 -27 -73 -48 -33 -31 -40 -45 -40 -75 0 -39
35 -86 63 -86 10 0 14 -12 14 -41 0 -81 77 -122 156 -83 60 30 97 74 97 115 0
47 -40 99 -76 99 -21 0 -23 4 -18 24 8 32 -21 84 -52 96 -29 11 -28 11 -71 -1z
m25 -91 c15 -15 15 -45 0 -54 -15 -9 -49 32 -41 51 6 18 25 19 41 3z m76 -120
c20 -28 20 -44 1 -52 -17 -6 -58 50 -49 66 9 15 33 8 48 -14z"/>
<path d="M5698 3690 c-52 -28 -81 -68 -75 -105 3 -16 24 -70 48 -118 60 -124
89 -137 197 -85 47 22 76 67 67 101 -12 45 -79 183 -98 205 -26 28 -87 29
-139 2z m102 -150 c29 -63 36 -87 28 -97 -7 -9 -14 -10 -23 -3 -19 16 -87 168
-80 180 15 25 38 1 75 -80z"/>
<path d="M4170 3674 c-6 -14 -10 -31 -10 -39 0 -18 -68 -177 -84 -195 -8 -8
-16 -24 -19 -35 -6 -17 7 -25 96 -62 56 -23 108 -44 116 -45 8 -2 23 18 37 49
l23 53 -42 18 c-41 18 -42 18 -55 0 -7 -10 -20 -18 -28 -18 -18 0 -18 30 -1
54 11 15 17 16 35 7 11 -6 25 -11 30 -11 13 0 26 54 14 58 -32 10 -43 28 -33
55 13 34 45 27 38 -9 -3 -18 2 -25 22 -33 14 -5 34 -12 43 -16 14 -6 22 3 38
41 12 26 17 51 13 55 -4 4 -46 24 -93 44 -139 60 -129 58 -140 29z"/>
<path d="M5423 3591 c-45 -21 -63 -45 -63 -86 0 -44 51 -198 73 -222 26 -29
94 -31 154 -4 44 21 63 45 63 83 0 43 -51 203 -73 226 -26 28 -94 30 -154 3z
m74 -63 c5 -7 20 -50 33 -96 17 -63 20 -86 11 -95 -8 -8 -14 -8 -25 3 -17 20
-60 175 -52 189 9 14 21 14 33 -1z"/>
<path d="M5167 3550 c-58 -15 -87 -38 -87 -70 0 -47 10 -60 45 -60 45 0 65 9
58 26 -8 22 16 47 33 33 24 -20 15 -37 -41 -79 -30 -22 -60 -50 -66 -62 -11
-20 -8 -122 4 -134 5 -5 204 13 233 21 10 3 4 88 -7 99 -2 3 -23 2 -46 -1 -30
-4 -44 -11 -48 -24 -7 -21 -45 -26 -45 -6 0 6 23 28 51 47 65 44 79 65 79 117
0 80 -65 117 -163 93z"/>
<path d="M4701 3521 c-44 -8 -50 -28 -57 -178 -6 -126 -2 -133 70 -133 28 0
35 4 38 23 2 12 -3 27 -11 33 -10 8 -12 25 -6 72 6 52 10 62 26 62 14 0 19 7
19 25 0 16 -6 25 -16 25 -14 0 -15 7 -10 40 7 43 8 42 -53 31z"/>
<path d="M4425 3498 c-28 -16 -35 -28 -35 -64 0 -33 16 -52 68 -78 21 -11 32
-23 30 -34 -5 -24 -32 -21 -36 4 -2 16 -13 24 -39 29 -39 7 -53 -3 -53 -42 0
-28 59 -60 124 -69 39 -6 48 -3 70 19 47 47 28 96 -52 139 -35 19 -40 33 -17
42 10 4 19 -2 25 -18 5 -15 20 -25 40 -30 39 -7 50 -1 50 28 0 29 -27 54 -77
72 -47 16 -72 17 -98 2z"/>
<path d="M4858 3273 c-23 -6 -34 -49 -18 -68 26 -32 86 -8 78 31 -4 21 -38 42
-60 37z"/>
<path d="M0 400 l0 -400 5000 0 5000 0 0 400 0 400 -5000 0 -5000 0 0 -400z
m2192 123 c23 -20 23 -57 1 -74 -15 -11 -16 -11 -5 1 27 31 11 72 -33 83 -19
4 -19 5 -1 6 11 0 28 -6 38 -16z m-69 -8 c-3 -9 -8 -14 -10 -11 -3 3 -2 9 2
15 9 16 15 13 8 -4z m-1760 -114 c22 -61 43 -108 47 -104 4 4 24 56 45 116 21
59 42 107 47 107 11 0 9 -5 -42 -149 -23 -64 -44 -107 -53 -109 -15 -3 -17 0
-67 143 -15 44 -31 88 -36 99 -5 13 -3 17 6 14 8 -2 32 -55 53 -117z m517 89
c0 -23 4 -30 20 -30 11 0 20 -4 20 -10 0 -5 -10 -10 -21 -10 -20 0 -21 -4 -17
-71 3 -55 8 -74 23 -85 23 -17 14 -29 -13 -15 -11 6 -22 25 -26 42 -10 51 -7
209 4 209 6 0 10 -13 10 -30z m515 16 c25 -11 33 -19 29 -30 -7 -19 -5 -19
-40 -1 -36 18 -55 19 -78 2 -28 -21 -9 -45 49 -62 87 -25 108 -74 54 -127 -29
-29 -33 -30 -90 -25 -68 6 -72 8 -64 29 5 13 12 14 40 5 50 -15 100 1 100 33
0 16 -8 28 -25 36 -87 40 -105 51 -108 67 -14 70 53 106 133 73z m105 -16 c0
-25 4 -30 25 -30 16 0 25 -6 25 -15 0 -9 -9 -15 -25 -15 -24 0 -25 -3 -25 -60
0 -55 2 -62 25 -72 14 -6 25 -15 25 -20 0 -18 -31 -20 -55 -4 -24 16 -25 20
-25 131 0 96 3 115 15 115 10 0 15 -10 15 -30z m482 -32 l3 -62 36 32 c20 18
45 32 55 32 14 0 9 -9 -21 -40 l-39 -40 42 -60 c40 -57 41 -60 20 -60 -16 0
-32 14 -53 45 -16 25 -33 45 -37 45 -5 0 -8 -20 -8 -45 0 -38 -3 -45 -20 -45
-19 0 -20 7 -20 130 0 122 1 130 20 130 16 0 19 -8 22 -62z m193 30 c1 -20 -2
-24 -11 -17 -8 7 -14 6 -17 -3 -3 -7 -6 2 -6 20 -1 27 3 33 17 30 11 -2 17
-13 17 -30z m-44 -35 c13 -16 12 -17 -3 -4 -17 13 -22 21 -14 21 2 0 10 -8 17
-17z m-1502 -19 c12 -15 21 -40 21 -55 0 -29 0 -29 -65 -29 -72 0 -83 -12 -44
-51 17 -17 30 -20 65 -16 43 4 59 -5 28 -17 -45 -17 -106 3 -123 41 -45 98 56
206 118 127z m191 16 c17 -11 10 -13 -40 -10 -47 2 -75 -28 -75 -80 0 -55 26
-80 82 -80 27 0 42 -4 38 -10 -9 -15 -78 -12 -102 5 -50 35 -50 135 0 170 24
17 74 20 97 5z m265 -13 c20 -16 28 -35 32 -69 5 -42 3 -50 -25 -78 -41 -41
-83 -41 -124 0 -28 28 -30 36 -25 78 9 82 84 119 142 69z m85 7 c0 -14 2 -14
22 0 24 17 38 20 38 9 0 -5 -14 -16 -30 -25 -29 -17 -30 -19 -30 -93 0 -43 -4
-75 -10 -75 -6 0 -10 40 -10 100 0 60 4 100 10 100 6 0 10 -7 10 -16z m537 1
c30 -21 44 -75 32 -120 -25 -88 -143 -88 -168 0 -20 72 20 135 84 135 17 0 40
-7 52 -15z m198 -5 c0 -10 -8 -14 -27 -12 -58 6 -91 -42 -67 -100 11 -28 36
-40 74 -35 12 1 20 -4 20 -13 0 -19 -48 -25 -85 -10 -63 26 -68 148 -6 179 31
15 91 9 91 -9z m5354 -83 c8 -26 17 -47 21 -47 4 0 13 21 21 47 8 25 20 48 26
50 8 3 4 -21 -11 -64 -13 -38 -29 -68 -36 -68 -7 0 -23 30 -36 68 -15 43 -19
67 -11 64 6 -2 18 -25 26 -50z m638 38 c2 -6 -9 -11 -23 -10 -39 0 -42 -23 -5
-36 34 -12 49 -43 31 -64 -13 -16 -38 -19 -64 -9 -27 10 -18 22 17 20 38 -1
43 19 8 37 -36 18 -48 42 -31 62 14 17 61 17 67 0z m333 -20 c0 -35 16 -47 26
-20 4 8 13 15 22 15 13 0 13 -3 -2 -19 -16 -18 -16 -21 -1 -50 19 -38 8 -40
-22 -3 l-22 27 -1 -27 c0 -16 -4 -28 -10 -28 -6 0 -10 30 -10 70 0 40 4 70 10
70 6 0 10 -16 10 -35z m580 32 c0 -4 -34 -104 -45 -136 -3 -8 -8 -11 -11 -8
-8 7 38 147 48 147 4 0 8 -2 8 -3z m100 -16 c-5 -11 -15 -23 -20 -26 -6 -4 -1
-14 12 -25 20 -15 21 -21 10 -44 -11 -26 -34 -32 -66 -20 -28 11 -17 24 14 18
22 -5 31 -2 36 11 6 16 -3 28 -31 39 -6 2 -5 9 3 17 18 19 15 29 -8 29 -11 0
-20 5 -20 10 0 6 18 10 40 10 37 0 40 -2 30 -19z m112 -33 c2 -29 2 -61 0 -70
-5 -22 -22 -24 -22 -3 0 10 -10 15 -30 15 -16 0 -30 3 -30 6 0 16 56 104 67
104 6 0 13 -22 15 -52z m88 -8 c0 -33 4 -60 10 -60 6 0 10 -4 10 -10 0 -5 -13
-10 -30 -10 -16 0 -30 5 -30 10 0 6 5 10 10 10 6 0 10 20 10 45 0 38 -2 43
-17 38 -16 -6 -16 -4 1 15 29 34 36 27 36 -38z m120 50 c0 -5 -11 -10 -25 -10
-32 0 -32 -16 -1 -24 27 -7 41 -35 31 -65 -7 -23 -37 -35 -65 -26 -31 10 -24
23 13 21 28 -1 32 2 32 24 0 21 -4 25 -30 24 -29 -1 -30 0 -27 32 4 31 7 34
38 34 19 0 34 -4 34 -10z m112 -42 c2 -29 2 -61 0 -70 -5 -22 -22 -24 -22 -3
0 10 -10 15 -30 15 -16 0 -30 3 -30 6 0 16 56 104 67 104 6 0 13 -22 15 -52z
m120 0 c2 -29 2 -61 0 -70 -5 -22 -22 -24 -22 -3 0 10 -10 15 -30 15 -16 0
-30 3 -30 6 0 16 56 104 67 104 6 0 13 -22 15 -52z m120 0 c2 -29 2 -61 0 -70
-5 -22 -22 -24 -22 -3 0 10 -10 15 -30 15 -16 0 -30 4 -30 9 0 18 55 100 67
101 6 0 13 -22 15 -52z m116 40 c21 -21 13 -45 -25 -77 l-38 -30 43 -1 c23 0
42 -4 42 -10 0 -5 -22 -10 -50 -10 -62 0 -65 15 -14 63 42 40 39 62 -8 53 -26
-5 -29 -4 -18 9 15 18 51 20 68 3z m-2098 -33 c9 -10 9 -15 1 -15 -15 0 -14
-57 2 -63 6 -2 9 -7 6 -11 -15 -17 -37 8 -41 47 -7 58 5 74 32 42z m360 0 c9
-10 9 -15 1 -15 -15 0 -14 -57 2 -63 6 -2 9 -7 6 -11 -15 -17 -37 8 -41 47 -7
58 5 74 32 42z m-532 -7 c23 -23 13 -38 -24 -38 -46 0 -41 -23 7 -30 27 -4 30
-7 16 -13 -28 -11 -44 -9 -61 9 -32 31 -14 84 29 84 12 0 26 -5 33 -12z m109
5 c14 -6 10 -9 -17 -13 -29 -4 -35 -9 -35 -30 0 -21 6 -26 35 -30 27 -4 31 -7
17 -13 -10 -4 -25 -7 -32 -7 -20 0 -45 28 -45 50 0 22 25 50 45 50 7 0 22 -3
32 -7z m177 -9 c31 -30 9 -84 -34 -84 -24 0 -50 26 -50 50 0 24 26 50 50 50
10 0 26 -7 34 -16z m86 6 c0 -4 -7 -10 -15 -14 -9 -3 -15 -19 -15 -41 0 -19
-4 -35 -10 -35 -5 0 -10 22 -10 49 0 45 2 49 25 49 14 0 25 -4 25 -8z m274 -6
c21 -20 20 -43 -1 -66 -20 -22 -46 -23 -67 -2 -31 30 -9 84 34 84 10 0 26 -7
34 -16z m121 7 c3 -5 -9 -11 -27 -13 -28 -2 -33 -7 -33 -28 0 -21 5 -26 33
-28 36 -4 34 -22 -3 -22 -28 0 -55 24 -55 50 0 37 67 69 85 41z m242 2 c14 -6
10 -9 -17 -13 -29 -4 -35 -9 -35 -30 0 -21 5 -26 33 -28 36 -4 34 -22 -3 -22
-28 0 -55 24 -55 50 0 22 25 50 45 50 7 0 22 -3 32 -7z m107 -9 c31 -30 9 -84
-34 -84 -24 0 -50 26 -50 50 0 24 26 50 50 50 10 0 26 -7 34 -16z m113 4 c7
-5 14 -5 18 2 10 16 42 12 49 -6 10 -25 7 -84 -4 -84 -5 0 -10 18 -10 41 0 33
-3 40 -17 37 -13 -2 -19 -14 -21 -41 -4 -50 -22 -47 -22 4 0 36 -2 40 -22 37
-19 -2 -24 -10 -26 -40 -5 -55 -22 -46 -22 10 0 48 0 49 33 49 17 0 37 -4 44
-9z m-327 -78 c0 -5 -4 -10 -10 -10 -5 0 -10 5 -10 10 0 6 5 10 10 10 6 0 10
-4 10 -10z"/>
<path d="M2150 500 c0 -5 5 -10 10 -10 6 0 10 5 10 10 0 6 -4 10 -10 10 -5 0
-10 -4 -10 -10z"/>
<path d="M536 418 c-28 -39 -21 -48 39 -48 59 0 67 9 45 51 -15 27 -64 25 -84
-3z"/>
<path d="M986 424 c-50 -50 -21 -144 44 -144 48 0 80 50 66 104 -13 53 -75 75
-110 40z"/>
<path d="M1616 408 c-32 -46 -8 -118 39 -118 28 0 55 34 55 70 0 36 -27 70
-55 70 -13 0 -31 -10 -39 -22z"/>
<path d="M8977 350 c-18 -29 -18 -30 2 -30 17 0 21 6 21 30 0 17 -1 30 -3 30
-1 0 -11 -13 -20 -30z"/>
<path d="M9297 350 c-18 -29 -18 -30 2 -30 17 0 21 6 21 30 0 17 -1 30 -3 30
-1 0 -11 -13 -20 -30z"/>
<path d="M9417 350 c-18 -29 -18 -30 2 -30 17 0 21 6 21 30 0 17 -1 30 -3 30
-1 0 -11 -13 -20 -30z"/>
<path d="M9537 350 c-18 -29 -18 -30 2 -30 17 0 21 6 21 30 0 17 -1 30 -3 30
-1 0 -11 -13 -20 -30z"/>
<path d="M7375 340 c-4 -6 5 -10 19 -10 14 0 26 5 26 10 0 6 -9 10 -19 10 -11
0 -23 -4 -26 -10z"/>
<path d="M7654 336 c-10 -26 4 -48 28 -44 17 2 23 10 23 28 0 18 -6 26 -23 28
-13 2 -25 -3 -28 -12z"/>
<path d="M8014 336 c-10 -26 4 -48 28 -44 17 2 23 10 23 28 0 18 -6 26 -23 28
-13 2 -25 -3 -28 -12z"/>
<path d="M8484 336 c-10 -26 4 -48 28 -44 17 2 23 10 23 28 0 18 -6 26 -23 28
-13 2 -25 -3 -28 -12z"/>
</g>
</svg>
